<svg xmlns="http://www.w3.org/2000/svg" width="24" height="24" viewBox="0 0 24 24" fill="none" stroke="#424242" stroke-width="1.7" stroke-linecap="round" stroke-linejoin="round">
  <path d="M10.00 9.50L16.50 9.50" stroke-width="1.7"/>
  <path d="M9.87 10.00L13.92 12.34" stroke-width="1.7"/>
  <path d="M9.50 10.37L12.43 15.43" stroke-width="1.7"/>
  <path d="M9.00 10.50L9.00 15.70" stroke-width="1.7"/>
  <path d="M8.50 10.37L5.25 16.00" stroke-width="1.7"/>
  <path d="M8.13 10.00L4.31 12.21" stroke-width="1.7"/>
  <path d="M8.00 9.50L1.83 9.50" stroke-width="1.7"/>
  <path d="M8.13 9.00L3.74 6.46" stroke-width="1.7"/>
  <path d="M8.50 8.63L5.64 3.68" stroke-width="1.7"/>
  <path d="M9.00 8.50L9.00 3.95" stroke-width="1.7"/>
  <path d="M9.50 8.63L12.75 3.00" stroke-width="1.7"/>
  <path d="M9.87 9.00L14.48 6.33" stroke-width="1.7"/>
  <path d="M19.06 18.72L22.21 20.00" stroke-width="1.4"/>
  <path d="M18.73 19.05L19.69 21.31" stroke-width="1.4"/>
  <path d="M18.28 19.06L17.13 21.89" stroke-width="1.4"/>
  <path d="M17.95 18.73L15.44 19.80" stroke-width="1.4"/>
  <path d="M17.94 18.28L14.79 17.00" stroke-width="1.4"/>
  <path d="M18.27 17.95L17.36 15.82" stroke-width="1.4"/>
  <path d="M18.72 17.94L19.93 14.95" stroke-width="1.4"/>
  <path d="M19.05 18.27L21.49 17.23" stroke-width="1.4"/>
</svg>